<svg width="157" height="28" viewBox="0 0 157 28" fill="none" xmlns="http://www.w3.org/2000/svg">
<path d="M88.6206 4.9751C85.6902 4.9751 83.9397 6.66952 83.1029 7.73202V5.53166H79.8628V22.6356H83.1029V13.7616C83.1029 10.3359 85.2102 8.0205 88.194 8.0205C91.0318 8.0205 92.8055 9.76635 92.8055 13.6376V22.6356H96.0448V13.6376C96.0448 7.96438 92.9028 4.9751 88.621 4.9751H88.6206Z" fill="#0059F3"/>
<path d="M107.894 4.95947C102.871 4.95947 98.7842 9.05639 98.7842 14.0918C98.7842 19.1272 102.871 23.2217 107.894 23.2217C112.918 23.2217 117.004 19.126 117.004 14.0918C117.004 9.05756 112.918 4.95947 107.894 4.95947ZM107.895 20.2254C104.657 20.2254 102.023 17.4739 102.023 14.0914C102.023 10.7088 104.657 7.95621 107.895 7.95621C111.132 7.95621 113.765 10.7088 113.765 14.0914C113.765 17.4739 111.131 20.2254 107.895 20.2254Z" fill="#0059F3"/>
<path d="M128.42 4.9751C125.49 4.9751 123.739 6.66952 122.903 7.73202V5.53166H119.663V22.6356H122.903V13.7616C122.903 10.3359 125.01 8.0205 127.994 8.0205C130.832 8.0205 132.605 9.76635 132.605 13.6376V22.6356H135.845V13.6376C135.845 7.96438 132.703 4.9751 128.421 4.9751H128.42Z" fill="#0059F3"/>
<path d="M60.6631 4.94727C55.6395 4.94727 51.5532 9.04418 51.5532 14.0796C51.5532 19.1149 55.6395 23.2095 60.6631 23.2095C65.6868 23.2095 69.7735 19.1138 69.7735 14.0796C69.7735 9.04536 65.6868 4.94727 60.6631 4.94727ZM60.6635 20.2132C57.4258 20.2132 54.7921 17.4617 54.7921 14.0792C54.7921 10.6966 57.4258 7.944 60.6635 7.944C63.9013 7.944 66.5342 10.6966 66.5342 14.0792C66.5342 17.4617 63.9005 20.2132 60.6635 20.2132Z" fill="#0059F3"/>
<path d="M75.7525 6.45801H72.5132V22.6431H75.7525V6.45801Z" fill="#0059F3"/>
<path d="M74.1319 0.568359C72.9768 0.568359 72.0371 1.51036 72.0371 2.66784C72.0371 3.82532 72.9768 4.7685 74.1319 4.7685C75.287 4.7685 76.2278 3.8265 76.2278 2.66784C76.2278 1.50918 75.2882 0.568359 74.1319 0.568359Z" fill="#0059F3"/>
<path d="M47.9441 17.2247C46.9012 18.7303 45.0604 20.064 42.6995 20.064C39.4107 20.064 36.7476 17.5143 36.7476 14.0768C36.7476 10.6393 39.4107 8.01662 42.6995 8.01662C45.3602 8.01662 47.081 9.63686 47.9472 10.96L49.8948 8.39696C48.3201 6.34575 45.7755 4.94531 42.6995 4.94531C37.6759 4.94531 33.4463 9.04223 33.4463 14.0776C33.4463 19.113 37.6759 23.2076 42.6995 23.2076C45.6216 23.2076 48.218 21.9139 49.885 19.7795L47.9441 17.2247Z" fill="#0059F3"/>
<path d="M153.408 17.5654C152.755 18.2884 150.998 20.2242 147.66 20.2242C144.322 20.2242 142.171 17.6682 141.927 15.6453L141.916 15.5201L156.666 15.5735C156.666 15.5735 156.802 14.832 156.804 14.1243C156.822 9.08857 152.75 4.97753 147.727 4.95947C145.454 4.95947 143 5.90108 141.28 7.61277C139.551 9.33349 138.593 11.6222 138.585 14.0576C138.567 19.0922 142.753 23.2213 147.66 23.2213C151.83 23.2213 154.306 21.0849 155.272 20.0177L153.408 17.5646V17.5654ZM147.716 7.86397C151.156 7.86397 153.277 10.4191 153.502 12.7149L141.894 12.6725C142.153 10.4191 144.275 7.86397 147.716 7.86397Z" fill="#0059F3"/>
<path d="M22.9589 13.9985C22.9589 13.9985 21.2292 16.6153 19.8456 18.2756C18.1347 20.3283 16.3233 21.5463 13.5558 21.5463C9.27874 21.5463 6.1462 18.1668 6.1462 13.9985C6.1462 9.83014 9.27835 6.45071 13.5558 6.45071C16.3233 6.45071 18.1347 7.66864 19.8456 9.72141C21.2292 11.3817 22.9589 13.9985 22.9589 13.9985C24.1478 12.434 25.3363 10.8699 26.5252 9.30536C26.5252 9.30536 26.3419 8.74723 25.2268 6.92799C22.0939 1.9664 16.1392 -0.535004 10.4456 0.885061C4.40114 2.39265 0.196289 7.81269 0.196289 13.9985C0.196289 20.1843 4.40114 25.6043 10.446 27.1119C16.1396 28.532 22.0939 26.0306 25.2272 21.0694C26.3419 19.2501 26.5256 18.692 26.5256 18.692C25.3367 17.1275 24.1482 15.563 22.9593 13.9989L22.9589 13.9985Z" fill="#0059F3"/>
</svg>
