<svg width="630.16" height="138.85" version="1.1" viewBox="0 0 166.73 36.738" xmlns="http://www.w3.org/2000/svg">
 <g>
  <path d="m33.289 36.738h-29.84c-1.9058 0-3.4492-1.5448-3.4492-3.4492v-29.84c0-1.9058 1.5434-3.4492 3.4492-3.4492h29.84c1.9044 0 3.4492 1.5434 3.4492 3.4492v29.84c0 1.9044-1.5448 3.4492-3.4492 3.4492" fill="#ffe300"></path>
  <g fill="#1c1c1c">
   <path d="m19.547 23.421h-1.9031v-10.104h1.9031zm4.9747-5.0519c1.6412-1.0818 2.7244-2.9394 2.7244-5.0519 0-3.339-2.7078-6.0455-6.0468-6.0455h-10.134c-0.19431 0-0.35002 0.15572-0.35002 0.35002v21.495c0 0.1943 0.15572 0.3514 0.35002 0.3514h10.134c3.339 0 6.0468-2.7065 6.0468-6.0468 0-2.1125-1.0831-3.9715-2.7244-5.0519"></path>
   <path d="m55.885 14.152 1.6771 1.2444-4.3946 5.4873 5.0808 6.0703-1.6771 1.3215-5.9187-7.2898zm-6.1722 13.768h-2.1346v-19l2.1346-0.48369z"></path>
   <path d="m67.341 24.872v-3.2012h-2.3881c-2.4129 0-3.5057 0.81304-3.5057 2.5397 0 1.3973 0.76205 2.1856 2.1346 2.1856 1.2444 0 2.8691-0.66008 3.7593-1.5241m-2.6679-4.6991h2.6679v-1.0928c0-2.1084-0.93982-2.9476-2.7189-2.9476-1.2444 0-2.6417 0.38172-3.7331 0.89021l-0.63528-1.4993c1.3463-0.76206 2.9724-1.2196 4.4194-1.2196 3.1764 0 4.7253 1.5255 4.7253 4.8783v8.7381h-1.5751l-0.25356-1.4731c-1.3215 1.0666-3.0234 1.6757-4.3698 1.6757-2.362 0-3.7841-1.4221-3.7841-3.8103 0-2.7175 1.8287-4.1396 5.2572-4.1396"></path>
   <path d="m81.514 14.152 1.6757 1.2444-4.3946 5.4873 5.0808 6.0703-1.6757 1.3215-5.9187-7.2898zm-6.1736 13.768h-2.1332v-19l2.1332-0.48369z"></path>
   <path d="m92.968 24.872v-3.2012h-2.3868c-2.4129 0-3.5057 0.81304-3.5057 2.5397 0 1.3973 0.76206 2.1856 2.1332 2.1856 1.2444 0 2.8705-0.66008 3.7593-1.5241m-2.6665-4.6991h2.6665v-1.0928c0-2.1084-0.93844-2.9476-2.7175-2.9476-1.2444 0-2.6417 0.38172-3.7331 0.89021l-0.63665-1.4993c1.3477-0.76206 2.9724-1.2196 4.4207-1.2196 3.175 0 4.7253 1.5255 4.7253 4.8783v8.7381h-1.5751l-0.25494-1.4731c-1.3202 1.0666-3.022 1.6757-4.3684 1.6757-2.3633 0-3.7855-1.4221-3.7855-3.8103 0-2.7175 1.83-4.1396 5.2586-4.1396"></path>
   <path d="m100.28 21.265c0 3.3789 1.3712 5.1566 3.7331 5.1566 2.362 0 3.7345-1.7777 3.7345-5.1566 0-3.3776-1.3725-5.2076-3.7345-5.2076-2.362 0-3.7331 1.83-3.7331 5.2076m9.678 0c0 4.4456-2.2104 6.9095-5.9448 6.9095-3.7083 0-5.9435-2.4639-5.9435-6.9095 0-4.4704 2.2614-6.9591 5.9435-6.9591 3.7097 0 5.9448 2.4887 5.9448 6.9591"></path>
   <path d="m116.54 17.176v8.4832c0.5333 0.07717 0.88884 0.07717 1.2182 0.07717 2.1346 0 3.6587-1.3463 3.6587-4.7763 0-2.5907-0.63527-4.09-3.0482-4.09-0.76206 0-1.4235 0.17777-1.8287 0.30592m-3.4038 10.338v-18.544l3.4038-0.60909v6.6297c0.81304-0.5085 1.8796-0.86403 3.0482-0.86403 3.6063 0 5.2834 2.4653 5.2834 6.7579 0 4.6481-2.5397 7.4166-6.7565 7.4166-1.9568 0-4.039-0.38034-4.9788-0.78686"></path>
   <path d="m134.19 24.568v-2.6169h-1.8287c-1.8286 0-2.7947 0.73725-2.7947 2.0822 0 0.966 0.55949 1.6013 1.6757 1.6013 1.1686 0 2.3372-0.5333 2.9476-1.0666m-2.1346-4.8011h2.1346v-0.45751c0-1.4731-0.45751-2.311-2.4639-2.311-1.2458 0-2.3881 0.25356-3.6077 0.88883l-0.93982-2.3372c1.2954-0.88883 3.2012-1.4235 4.954-1.4235 3.4286 0 5.2324 1.6771 5.2324 5.1566v8.6375h-2.3881l-0.38034-1.1424c-1.3712 1.0652-2.8456 1.4979-4.039 1.4979-2.6169 0-4.0638-1.5503-4.0638-4.2168 0-2.8195 1.9292-4.2926 5.5618-4.2926"></path>
   <path d="m140.41 14.534h2.4129l0.5085 1.345c1.1934-1.0666 2.8456-1.7515 4.2678-1.7515 2.9972 0 4.4952 1.8535 4.4952 5.2062v8.5866h-3.4024v-8.6885c0-1.4979-0.55948-2.1332-2.3633-2.1332-0.71107 0-1.7267 0.20395-2.5149 0.5085v10.313h-3.4038z"></path>
   <path d="m162.11 20.807 4.6233 5.5383-2.5659 2.0326-5.6128-6.8847v6.4272h-3.4038v-18.951l3.4038-0.60909v12.32l5.1304-6.9605 2.5397 1.779z"></path>
  </g>
 </g>
</svg>
